<?xml version="1.0" encoding="utf-8"?>
<?xml-stylesheet type="text/xsl" href="rss1.xsl"?>
<rss version="2.0" xmlns:atom="http://www.w3.org/2005/Atom" xmlns:content="http://purl.org/rss/1.0/modules/content/" xmlns:dc="http://purl.org/dc/elements/1.1/" xmlns:media="http://search.yahoo.com/mrss/">
<channel>
 <title>Getty</title>
 <link>http://www.gettyimg.com/</link>
 <atom:link href="http://www.gettyimg.com/" rel="self" type="application/rss+xml" />

 
                <item>
                <title><![CDATA[【MTV HD】Anne-Marie - 2002 [MTV Live NL 1080i PAL HDTV DD5.1 + MP2-STRGMR]]]></title>
                <link><![CDATA[https://sharemania.us/threads/anne-marie-2002-mtv-live-nl-1080i-pal-hdtv-dd5-1-mp2-strgmr.250300/]]></link>
                <description><![CDATA[<article>
<blockquote class="messageText SelectQuoteContainer ugc baseHtml">
<img src="https://i.imgur.com/idLYOE7.jpeg" class="bbCodeImage LbImage" alt="[​IMG]" data-url="https://i.imgur.com/idLYOE7.jpeg" style=""> <br>
<div class="bbCodeBlock bbCodeVfcHH HiddenContent">
<div class="attribution type">Hidden Content:</div>
<blockquote>You must either reply or click 'Like' to see the hidden information contained here.</blockquote>
</div>
<div class="messageTextEndMarker">&nbsp;</div>
</blockquote>
</article>]]></description>
                <author><![CDATA[stargamer]]></author>
                </item>

                
                <item>
                <title><![CDATA[【BLU-RAY】BD REMUX - ayumi hamasaki - 25th Anniversary LIVE + COUNTDOWN LIVE 2022-2023 (Blu-Ray Lossless MKV) [2023.07.01]]]></title>
                <link><![CDATA[https://sharemania.us/threads/ayumi-hamasaki-25th-anniversary-live-countdown-live-2022-2023-blu-ray-lossless-mkv-2023-07-01.250298/]]></link>
                <description><![CDATA[<article>
<blockquote class="messageText SelectQuoteContainer ugc baseHtml">
<a href="https://ibb.co/ypZkwBB" target="_blank" class="externalLink" rel="nofollow"><img src="https://i.ibb.co/5kSjNxx/Hamasaki-Ayumi-25th-Anniversary-Live-BOX.jpg" class="bbCodeImage LbImage" alt="[​IMG]" data-url="https://i.ibb.co/5kSjNxx/Hamasaki-Ayumi-25th-Anniversary-Live-BOX.jpg"></a><br>
<br>
<a href="https://ibb.co/27NF3bX" target="_blank" class="externalLink" rel="nofollow"><img src="https://i.ibb.co/pvy1jmC/ayu-2023-25th-anniversary-live-bd-1080p-mkv-thumbs.png" class="bbCodeImage LbImage" alt="[​IMG]" data-url="https://i.ibb.co/pvy1jmC/ayu-2023-25th-anniversary-live-bd-1080p-mkv-thumbs.png"></a><br>
<a href="https://ibb.co/9bQxPCx" target="_blank" class="externalLink" rel="nofollow"><img src="https://i.ibb.co/m9fnpMn/ayu-2022-2023-countdown-live-remember-you-bd-1080p-mkv-thumbs-2.png" class="bbCodeImage LbImage" alt="[​IMG]" data-url="https://i.ibb.co/m9fnpMn/ayu-2022-2023-countdown-live-remember-you-bd-1080p-mkv-thumbs-2.png"></a><br>
<br>
<div class="bbCodeBlock bbCodeQuote">
<aside>
<blockquote class="quoteContainer"><div class="quote">「ayumi hamasaki 25th A(ロゴ)nniversary LIVE」<br>
2023年4月8日 国立代々木競技場 第一体育館<br>
00. Opening<br>
01. We are the QUEENS<br>
02. Mirrorcle World<br>
03. Prologue ～ starting over ～ Catcher In The Light<br>
04. GAME<br>
05. my name's WOMEN<br>
06. intermission<br>
07. VIBEES<br>
08. Lelio<br>
09. You &amp; Me<br>
10. ayu-mi-x-mi-x 2023<br>
11. Heartplace<br>
12. alterna<br>
13. acoustic show<br>
14. beloved<br>
15. End roll ～ As if... ～ Dolls<br>
16. Tell All<br>
17. SURREAL ～ evolution ～ SURREAL<br>
18. Song 4 u<br>
19. Lady Dynamite<br>
20. Humming 7/4<br>
21. Boys &amp; Girls<br>
22. Just the way you are<br>
23. Ivy<br>
<br>
「ayumi hamasaki COUNTDOWN LIVE 2022-2023 A(ロゴ) ～Remember you～」<br>
2022年12月31日 国立代々木競技場 第一体育館<br>
00. Opening<br>
01. (NOT) Remember you<br>
02. Nonfiction<br>
03. WARNING<br>
04. S.O.S<br>
05. is this LOVE?<br>
06. Because of You<br>
07. decision<br>
08. Strings Show<br>
09. Together When...<br>
10. November<br>
11. 梵天Show<br>
12. I am...<br>
13. Moments<br>
14. M<br>
15. evolution<br>
16. Bold &amp; Delicious<br>
17. NEXT LEVEL<br>
18. MASK<br>
19. Key (Orchestra version)<br>
20. flower garden ～ everywhere nowhere ～ independent ～ ＋ ～ SURREAL<br>
21. Boys &amp; Girls<br>
22. Love song</div><div class="quoteExpand quoteCut">Click to expand...</div></blockquote>
</aside>
</div>
<div class="ToggleTriggerAnchor bbCodeSpoilerContainer">
<button type="button" class="button bbCodeSpoilerButton ToggleTrigger Tooltip JsOnly" data-target="> .SpoilerTarget"><span>Spoiler</span></button>
<div class="SpoilerTarget bbCodeSpoilerText">General<br>
Unique ID : 317075574078675985780958339932204724608 (0xEE8A88C642421B05EE3B7DE68E727180)<br>
Complete name : C:\Users\X\Desktop\ayu 2023 25th anniversary live bd 1080p.mkv<br>
Format : Matroska<br>
Format version : Version 2<br>
File size : 38.3 GiB<br>
Duration : 2 h 49 min<br>
Overall bit rate mode : Variable<br>
Overall bit rate : 32.3 Mb/s<br>
Frame rate : 23.976 FPS<br>
Encoded date : 2023-07-05 20:57:41 UTC<br>
Writing application : MakeMKV v1.17.4 darwin(x64-release)<br>
Writing library : libmakemkv v1.17.4 (1.3.10/1.5.2) darwin(x64-release)<br>
Video<br>
ID : 1<br>
ID in the original source medium : 4113 (0x1011)<br>
Format : AVC<br>
Format/Info : Advanced Video Codec<br>
Format profile : High@L4.1<br>
Format settings : CABAC / 4 Ref Frames<br>
Format settings, CABAC : Yes<br>
Format settings, Reference frames : 4 frames<br>
Format settings, Slice count : 4 slices per frame<br>
Codec ID : V_MPEG4/ISO/AVC<br>
Duration : 2 h 49 min<br>
Bit rate mode : Variable<br>
Bit rate : 30.0 Mb/s<br>
Maximum bit rate : 35.0 Mb/s<br>
Width : 1 920 pixels<br>
Height : 1 080 pixels<br>
Display aspect ratio : 16:9<br>
Frame rate mode : Constant<br>
Frame rate : 23.976 (24000/1001) FPS<br>
Color space : YUV<br>
Chroma subsampling : 4:2:0<br>
Bit depth : 8 bits<br>
Scan type : Progressive<br>
Bits/(Pixel*Frame) : 0.603<br>
Stream size : 35.6 GiB (93%)<br>
Language : English<br>
Default : No<br>
Forced : No<br>
Original source medium : Blu-ray<br>
Audio<br>
ID : 2<br>
ID in the original source medium : 4352 (0x1100)<br>
Format : PCM<br>
Format settings : Little / Signed<br>
Codec ID : A_PCM/INT/LIT<br>
Duration : 2 h 49 min<br>
Bit rate mode : Constant<br>
Bit rate : 2 304 kb/s<br>
Channel(s) : 2 channels<br>
Sampling rate : 48.0 kHz<br>
Frame rate : 30.000 FPS (1600 SPF)<br>
Bit depth : 24 bits<br>
Stream size : 2.73 GiB (7%)<br>
Title : Stereo<br>
Language : Japanese<br>
Default : Yes<br>
Forced : No<br>
Original source medium : Blu-ray<br>
Menu<br>
00:00:00.000 : en:-OPENING-<br>
00:03:43.223 : en:We are the QUEENS<br>
00:08:03.483 : en:Mirrorcle World<br>
00:13:28.224 : en<img src="styles/default/xenforo/smilies/grimace-48.png" class="mceSmilie" alt=":p" title="Stick Out Tongue    :p">rologue ～ starting over ～ Catcher In The Light -Interlude-<br>
00:18:18.514 : en:GAME<br>
00:23:10.806 : en:my name's WOMEN<br>
00:28:44.472 : en:intermission -Interlude-<br>
00:34:42.497 : en:VIBEES<br>
00:38:29.348 : en:Lelio<br>
00:41:57.139 : en:You &amp; Me<br>
00:45:11.166 : en:ayu-mi-x mi-x 2023 -Interlude-<br>
00:50:44.708 : en:Heartplace<br>
00:56:51.408 : en:alterna<br>
01:02:32.749 : en:acoustic show -Interlude-<br>
01:08:20.096 : en:beloved<br>
01:13:38.414 : en:End roll<br>
01:17:01.867 : en:As if...<br>
01:19:10.746 : en<img src="styles/default/xenforo/smilies/exciting-48.png" class="mceSmilie" alt=":D" title="Big Grin    :D">olls<br>
01:23:32.007 : en:-Interlude-<br>
01:28:42.317 : en:Tell All<br>
01:34:27.078 : en:SURREAL ～ evolution ～ SURREAL<br>
01:41:22.076 : en:Song 4 u<br>
01:47:38.452 : en:Lady Dynamite<br>
01:53:56.830 : en:-ENCORE-<br>
01:56:41.995 : en:-MC-<br>
02:10:55.180 : en:Humming 7/4<br>
02:14:34.274 : en:Boys &amp; Girls<br>
02:24:45.677 : en:Just the way you are<br>
02:31:56.107 : en:Ivy<br>
02:40:33.290 : en:-ENDING-<br>
02:44:09.840 : en:-CREDITS-<br>
<br>
General<br>
Unique ID : 113744661254188030886681560384720079248 (0x55926CC70E7BE3745DC9E66C27100990)<br>
Complete name : C:\Users\X\Desktop\ayu 2022-2023 countdown live remember you bd 1080p.mkv<br>
Format : Matroska<br>
Format version : Version 2<br>
File size : 34.3 GiB<br>
Duration : 2 h 19 min<br>
Overall bit rate mode : Variable<br>
Overall bit rate : 35.3 Mb/s<br>
Frame rate : 23.976 FPS<br>
Encoded date : 2023-07-13 15:59:51 UTC<br>
Writing application : MakeMKV v1.17.4 darwin(x64-release)<br>
Writing library : libmakemkv v1.17.4 (1.3.10/1.5.2) darwin(x64-release)<br>
Video<br>
ID : 1<br>
ID in the original source medium : 4113 (0x1011)<br>
Format : AVC<br>
Format/Info : Advanced Video Codec<br>
Format profile : High@L4.1<br>
Format settings : CABAC / 4 Ref Frames<br>
Format settings, CABAC : Yes<br>
Format settings, Reference frames : 4 frames<br>
Format settings, Slice count : 4 slices per frame<br>
Codec ID : V_MPEG4/ISO/AVC<br>
Duration : 2 h 19 min<br>
Bit rate mode : Variable<br>
Bit rate : 33.0 Mb/s<br>
Maximum bit rate : 35.0 Mb/s<br>
Width : 1 920 pixels<br>
Height : 1 080 pixels<br>
Display aspect ratio : 16:9<br>
Frame rate mode : Constant<br>
Frame rate : 23.976 (24000/1001) FPS<br>
Color space : YUV<br>
Chroma subsampling : 4:2:0<br>
Bit depth : 8 bits<br>
Scan type : Progressive<br>
Bits/(Pixel*Frame) : 0.664<br>
Stream size : 32.1 GiB (93%)<br>
Language : English<br>
Default : No<br>
Forced : No<br>
Original source medium : Blu-ray<br>
Audio<br>
ID : 2<br>
ID in the original source medium : 4352 (0x1100)<br>
Format : PCM<br>
Format settings : Little / Signed<br>
Codec ID : A_PCM/INT/LIT<br>
Duration : 2 h 19 min<br>
Bit rate mode : Constant<br>
Bit rate : 2 304 kb/s<br>
Channel(s) : 2 channels<br>
Sampling rate : 48.0 kHz<br>
Frame rate : 30.000 FPS (1600 SPF)<br>
Bit depth : 24 bits<br>
Stream size : 2.24 GiB (7%)<br>
Title : Stereo<br>
Language : Japanese<br>
Default : Yes<br>
Forced : No<br>
Original source medium : Blu-ray<br>
Menu<br>
00:00:00.000 : en:-Intro-<br>
00:00:46.046 : en:-OPENING-<br>
00:05:42.342 : en<img src="styles/default/xenforo/smilies/unhappy-48.png" class="mceSmilie" alt=":(" title="Frown    :(">NOT) Remember you<br>
00:09:25.189 : en:Nonfiction<br>
00:13:09.205 : en:WARNING<br>
00:18:01.914 : en:S.O.S. -Interlude-<br>
00:23:12.391 : en:is this LOVE?<br>
00:28:17.320 : en:Because of You<br>
00:34:14.052 : en:decision<br>
00:38:37.523 : en:Strings Show -Interlude-<br>
00:44:30.668 : en:Together When...<br>
00:49:40.978 : en:November<br>
00:55:15.312 : en:梵天Show -Interlude-<br>
01:00:24.037 : en:I am...<br>
01:06:28.985 : en:Moments<br>
01:12:25.758 : en:M<br>
01:17:15.130 : en:-Interlude-<br>
01:23:14.531 : en:evolution<br>
01:27:15.647 : en:Bold &amp; Delicious<br>
01:32:21.536 : en:NEXT LEVEL<br>
01:38:55.346 : en:MASK -Intro-<br>
01:39:20.955 : en:MASK<br>
01:43:57.856 : en:-ENCORE-<br>
01:45:58.769 : en:Key (Orchestra version)<br>
01:49:39.990 : en:flower garden ～ everywhere nowhere ～ independent ～ ＋ ～ SURREAL<br>
01:58:50.123 : en:Boys &amp; Girls<br>
02:05:03.496 : en:Love song<br>
02:12:35.447 : en:-ENDING-<br>
02:13:44.016 : en:-CREDITS-</div>
</div><br>
<div class="bbCodeBlock bbCodeVfcHH HiddenContent">
<div class="attribution type">Hidden Content:</div>
<blockquote>You must reply before you can see the hidden data contained here.</blockquote>
</div>
<div class="messageTextEndMarker">&nbsp;</div>
</blockquote>
</article>]]></description>
                <author><![CDATA[kuraudie]]></author>
                </item>

                
                <item>
                <title><![CDATA[【Requests】[REQ VID] - The Conjuring Movies (1, 2, 3) Blu-ray Bonus Features]]></title>
                <link><![CDATA[https://sharemania.us/threads/the-conjuring-movies-1-2-3-blu-ray-bonus-features.250299/]]></link>
                <description><![CDATA[<article>
<blockquote class="messageText SelectQuoteContainer ugc baseHtml">
Hey y'all!! Do someone has the Blu-rays of Conjuring Movies to rip the bonuses content?? Or have those video files to share?? I can only find the movies in remux on the internet but not the entire disc structure to rip them. Thanks!
<div class="messageTextEndMarker">&nbsp;</div>
</blockquote>
</article>]]></description>
                <author><![CDATA[MileyCake]]></author>
                </item>

                </channel></rss>